# xmcd
#
# Track frame offsets: 
#        150
#        25598
#        51151
#        73366
#        101349
#        123099
#        142712
#        159872
#        178960
#        204430
#
# Disc length: 3006 seconds
#
# Revision: 0
# Processed by: cddbd v1.5.2PL0 Copyright (c) Steve Scherf et al.
# Submitted via: ExactAudioCopy v1.0b1
#
DISCID=7e0bbc0a
DTITLE=Rita Chiarelli - The Italian Sessions
DYEAR=2006
DGENRE=Blues
TTITLE0=Quanto Sei Bella Roma
TTITLE1=Dicitencello Vuje
TTITLE2=Chitarra Romana
TTITLE3=Malafemmina
TTITLE4=Roma Forestiera
TTITLE5=Reginella
TTITLE6=Chiove
TTITLE7=Comme Facette Mammeta
TTITLE8=Vierno
TTITLE9=Tuo Vuo, Fa, L, Americano
EXTD=
EXTT0=
EXTT1=
EXTT2=
EXTT3=
EXTT4=
EXTT5=
EXTT6=
EXTT7=
EXTT8=
EXTT9=
PLAYORDER=
